<?xml version="1.0" encoding="UTF-8" standalone="no"?>
<!-- Created with Inkscape (http://www.inkscape.org/) -->

<svg
   xmlns:dc="http://purl.org/dc/elements/1.1/"
   xmlns:cc="http://creativecommons.org/ns#"
   xmlns:rdf="http://www.w3.org/1999/02/22-rdf-syntax-ns#"
   xmlns:svg="http://www.w3.org/2000/svg"
   xmlns="http://www.w3.org/2000/svg"
   xmlns:sodipodi="http://sodipodi.sourceforge.net/DTD/sodipodi-0.dtd"
   xmlns:inkscape="http://www.inkscape.org/namespaces/inkscape"
   width="190.16159mm"
   height="190.16159mm"
   viewBox="0 0 673.80091 673.80091"
   id="svg2"
   version="1.1"
   inkscape:version="0.91 r13725"
   sodipodi:docname="EC.svg">
  <defs
     id="defs4" />
  <sodipodi:namedview
     id="base"
     pagecolor="#ffffff"
     bordercolor="#666666"
     borderopacity="1.0"
     inkscape:pageopacity="0.0"
     inkscape:pageshadow="2"
     inkscape:zoom="0.7"
     inkscape:cx="161.54025"
     inkscape:cy="185.42769"
     inkscape:document-units="px"
     inkscape:current-layer="layer1"
     showgrid="false"
     fit-margin-top="1"
     fit-margin-right="1"
     fit-margin-bottom="1"
     fit-margin-left="1"
     inkscape:window-width="1920"
     inkscape:window-height="1011"
     inkscape:window-x="1680"
     inkscape:window-y="32"
     inkscape:window-maximized="1" />
  <metadata
     id="metadata7">
    <rdf:RDF>
      <cc:Work
         rdf:about="">
        <dc:format>image/svg+xml</dc:format>
        <dc:type
           rdf:resource="http://purl.org/dc/dcmitype/StillImage" />
        <dc:title></dc:title>
      </cc:Work>
    </rdf:RDF>
  </metadata>
  <g
     inkscape:label="Layer 1"
     inkscape:groupmode="layer"
     id="layer1"
     transform="translate(-35.146791,-189.28065)">
    <path
       style="fill:#333333;fill-rule:evenodd;stroke:#000000;stroke-width:1px;stroke-linecap:butt;stroke-linejoin:miter;stroke-opacity:1"
       d="M 165.66797 4.0429688 C 76.128048 4.0429688 4.0429688 76.128048 4.0429688 165.66797 L 4.0429688 508.13281 C 4.0429688 597.67273 76.128048 669.75781 165.66797 669.75781 L 508.13281 669.75781 C 597.67273 669.75781 669.75781 597.67273 669.75781 508.13281 L 669.75781 165.66797 C 669.75781 76.128048 597.67273 4.0429688 508.13281 4.0429688 L 165.66797 4.0429688 z M 443.87109 222.55469 C 491.73163 222.55469 519.98574 246.48517 528.63281 294.3457 L 499.97656 294.3457 C 496.75905 278.66032 490.42411 266.89543 480.97266 259.05273 C 471.52121 251.21004 458.04797 247.28906 440.55273 247.28906 C 419.2367 247.28906 402.34482 255.43399 389.87695 271.72266 C 377.61018 288.01133 371.47656 310.23151 371.47656 338.38477 C 371.47656 365.93474 377.91119 387.85391 390.78125 404.14258 C 403.65131 420.23015 421.04552 428.27344 442.96484 428.27344 C 461.06337 428.27344 474.93925 423.24614 484.5918 413.19141 C 494.24434 402.93558 500.78061 387.15002 504.19922 365.83398 L 533.15625 365.83398 C 526.52013 423.95035 496.35635 453.00977 442.66406 453.00977 C 427.58196 453.00977 414.00709 450.49612 401.94141 445.46875 C 390.07682 440.24029 380.52652 433.70402 373.28711 425.86133 C 366.2488 418.01864 360.31651 408.86903 355.49023 398.41211 C 350.86506 387.75409 347.64579 377.59786 345.83594 367.94531 C 344.22718 358.29277 343.42383 348.54114 343.42383 338.6875 C 343.42383 328.63277 344.22718 318.67786 345.83594 308.82422 C 347.64579 298.97058 350.96474 288.71466 355.79102 278.05664 C 360.61729 267.39862 366.54958 258.14738 373.58789 250.30469 C 380.8273 242.2609 390.47924 235.62495 402.54492 230.39648 C 414.8117 225.16802 428.5879 222.55469 443.87109 222.55469 z M 164.60742 226.17383 L 316.93555 226.17383 L 316.93555 250.9082 L 192.66016 250.9082 L 192.66016 321.19141 L 312.41211 321.19141 L 312.41211 345.92578 L 192.66016 345.92578 L 192.66016 421.33594 L 322.36523 421.33594 L 322.36523 446.07031 L 164.60742 446.07031 L 164.60742 226.17383 z "
       transform="translate(35.146791,189.28065)"
       id="rect3336" />
    <flowRoot
       xml:space="preserve"
       id="flowRoot3348"
       style="font-style:normal;font-weight:normal;font-size:40px;line-height:125%;font-family:sans-serif;letter-spacing:0px;word-spacing:0px;fill:#000000;fill-opacity:1;stroke:none;stroke-width:1px;stroke-linecap:butt;stroke-linejoin:miter;stroke-opacity:1"><flowRegion
         id="flowRegion3350"><rect
           id="rect3352"
           width="482.85291"
           height="389.91888"
           x="36.36549"
           y="169.48888" /></flowRegion><flowPara
         id="flowPara3354"></flowPara></flowRoot>    <flowRoot
       xml:space="preserve"
       id="flowRoot3364"
       style="font-style:normal;font-weight:normal;font-size:40px;line-height:125%;font-family:sans-serif;letter-spacing:0px;word-spacing:0px;fill:#000000;fill-opacity:1;stroke:none;stroke-width:1px;stroke-linecap:butt;stroke-linejoin:miter;stroke-opacity:1"><flowRegion
         id="flowRegion3366"><rect
           id="rect3368"
           width="1.4285715"
           height="178.57143"
           x="380"
           y="348.07648" /></flowRegion><flowPara
         id="flowPara3370"></flowPara></flowRoot>    <flowRoot
       xml:space="preserve"
       id="flowRoot3372"
       style="font-style:normal;font-weight:normal;font-size:40px;line-height:125%;font-family:sans-serif;letter-spacing:0px;word-spacing:0px;fill:#000000;fill-opacity:1;stroke:none;stroke-width:1px;stroke-linecap:butt;stroke-linejoin:miter;stroke-opacity:1"><flowRegion
         id="flowRegion3374"><rect
           id="rect3376"
           width="161.42857"
           height="60"
           x="378.57144"
           y="343.79077" /></flowRegion><flowPara
         id="flowPara3378"></flowPara></flowRoot>  </g>
</svg>
