<?xml version="1.0" encoding="UTF-8" standalone="no"?>
<!-- Created with Inkscape (http://www.inkscape.org/) -->

<svg
   xmlns:dc="http://purl.org/dc/elements/1.1/"
   xmlns:cc="http://creativecommons.org/ns#"
   xmlns:rdf="http://www.w3.org/1999/02/22-rdf-syntax-ns#"
   xmlns:svg="http://www.w3.org/2000/svg"
   xmlns="http://www.w3.org/2000/svg"
   xmlns:sodipodi="http://sodipodi.sourceforge.net/DTD/sodipodi-0.dtd"
   xmlns:inkscape="http://www.inkscape.org/namespaces/inkscape"
   width="190.16159mm"
   height="190.16159mm"
   viewBox="0 0 673.80091 673.80091"
   id="svg2"
   version="1.1"
   inkscape:version="0.91 r13725"
   sodipodi:docname="TEM.svg">
  <defs
     id="defs4" />
  <sodipodi:namedview
     id="base"
     pagecolor="#ffffff"
     bordercolor="#666666"
     borderopacity="1.0"
     inkscape:pageopacity="0.0"
     inkscape:pageshadow="2"
     inkscape:zoom="0.7"
     inkscape:cx="161.54025"
     inkscape:cy="185.42769"
     inkscape:document-units="px"
     inkscape:current-layer="layer1"
     showgrid="false"
     fit-margin-top="1"
     fit-margin-right="1"
     fit-margin-bottom="1"
     fit-margin-left="1"
     inkscape:window-width="1920"
     inkscape:window-height="1011"
     inkscape:window-x="1680"
     inkscape:window-y="32"
     inkscape:window-maximized="1" />
  <metadata
     id="metadata7">
    <rdf:RDF>
      <cc:Work
         rdf:about="">
        <dc:format>image/svg+xml</dc:format>
        <dc:type
           rdf:resource="http://purl.org/dc/dcmitype/StillImage" />
        <dc:title></dc:title>
      </cc:Work>
    </rdf:RDF>
  </metadata>
  <g
     inkscape:label="Layer 1"
     inkscape:groupmode="layer"
     id="layer1"
     transform="translate(-35.146791,-189.28065)">
    <path
       style="fill:#333333;fill-rule:evenodd;stroke:#000000;stroke-width:1px;stroke-linecap:butt;stroke-linejoin:miter;stroke-opacity:1"
       d="M 165.66797 4.0429688 C 76.128048 4.0429688 4.0429688 76.128048 4.0429688 165.66797 L 4.0429688 508.13281 C 4.0429688 597.67273 76.128048 669.75781 165.66797 669.75781 L 508.13281 669.75781 C 597.67273 669.75781 669.75781 597.67273 669.75781 508.13281 L 669.75781 165.66797 C 669.75781 76.128048 597.67273 4.0429688 508.13281 4.0429688 L 165.66797 4.0429688 z M 33.462891 226.17383 L 206.00195 226.17383 L 206.00195 250.9082 L 133.91016 250.9082 L 133.91016 446.07031 L 105.85742 446.07031 L 105.85742 250.9082 L 33.462891 250.9082 L 33.462891 226.17383 z M 239.42773 226.17383 L 391.75781 226.17383 L 391.75781 250.9082 L 267.48047 250.9082 L 267.48047 321.19141 L 387.23242 321.19141 L 387.23242 345.92578 L 267.48047 345.92578 L 267.48047 421.33594 L 397.1875 421.33594 L 397.1875 446.07031 L 239.42773 446.07031 L 239.42773 226.17383 z M 430.31055 226.17383 L 469.22266 226.17383 L 534.37695 417.7168 L 598.32617 226.17383 L 637.23633 226.17383 L 637.23633 446.07031 L 610.69336 446.07031 L 610.69336 261.76758 L 548.85547 446.07031 L 519.29492 446.07031 L 456.85547 261.76758 L 456.85547 446.07031 L 430.31055 446.07031 L 430.31055 226.17383 z "
       transform="translate(35.146791,189.28065)"
       id="rect3336" />
    <flowRoot
       xml:space="preserve"
       id="flowRoot3348"
       style="font-style:normal;font-weight:normal;font-size:40px;line-height:125%;font-family:sans-serif;letter-spacing:0px;word-spacing:0px;fill:#000000;fill-opacity:1;stroke:none;stroke-width:1px;stroke-linecap:butt;stroke-linejoin:miter;stroke-opacity:1"><flowRegion
         id="flowRegion3350"><rect
           id="rect3352"
           width="482.85291"
           height="389.91888"
           x="36.36549"
           y="169.48888" /></flowRegion><flowPara
         id="flowPara3354"></flowPara></flowRoot>    <flowRoot
       xml:space="preserve"
       id="flowRoot3364"
       style="font-style:normal;font-weight:normal;font-size:40px;line-height:125%;font-family:sans-serif;letter-spacing:0px;word-spacing:0px;fill:#000000;fill-opacity:1;stroke:none;stroke-width:1px;stroke-linecap:butt;stroke-linejoin:miter;stroke-opacity:1"><flowRegion
         id="flowRegion3366"><rect
           id="rect3368"
           width="1.4285715"
           height="178.57143"
           x="380"
           y="348.07648" /></flowRegion><flowPara
         id="flowPara3370"></flowPara></flowRoot>    <flowRoot
       xml:space="preserve"
       id="flowRoot3372"
       style="font-style:normal;font-weight:normal;font-size:40px;line-height:125%;font-family:sans-serif;letter-spacing:0px;word-spacing:0px;fill:#000000;fill-opacity:1;stroke:none;stroke-width:1px;stroke-linecap:butt;stroke-linejoin:miter;stroke-opacity:1"><flowRegion
         id="flowRegion3374"><rect
           id="rect3376"
           width="161.42857"
           height="60"
           x="378.57144"
           y="343.79077" /></flowRegion><flowPara
         id="flowPara3378"></flowPara></flowRoot>  </g>
</svg>
