<?xml version="1.0" encoding="UTF-8" standalone="no"?>
<!-- Created with Inkscape (http://www.inkscape.org/) -->

<svg
   xmlns:dc="http://purl.org/dc/elements/1.1/"
   xmlns:cc="http://creativecommons.org/ns#"
   xmlns:rdf="http://www.w3.org/1999/02/22-rdf-syntax-ns#"
   xmlns:svg="http://www.w3.org/2000/svg"
   xmlns="http://www.w3.org/2000/svg"
   xmlns:sodipodi="http://sodipodi.sourceforge.net/DTD/sodipodi-0.dtd"
   xmlns:inkscape="http://www.inkscape.org/namespaces/inkscape"
   width="190.16159mm"
   height="190.16159mm"
   viewBox="0 0 673.80091 673.80091"
   id="svg2"
   version="1.1"
   inkscape:version="0.91 r13725"
   sodipodi:docname="TGA.svg">
  <defs
     id="defs4" />
  <sodipodi:namedview
     id="base"
     pagecolor="#ffffff"
     bordercolor="#666666"
     borderopacity="1.0"
     inkscape:pageopacity="0.0"
     inkscape:pageshadow="2"
     inkscape:zoom="0.7"
     inkscape:cx="161.54025"
     inkscape:cy="185.42769"
     inkscape:document-units="px"
     inkscape:current-layer="layer1"
     showgrid="false"
     fit-margin-top="1"
     fit-margin-right="1"
     fit-margin-bottom="1"
     fit-margin-left="1"
     inkscape:window-width="1920"
     inkscape:window-height="1011"
     inkscape:window-x="1680"
     inkscape:window-y="32"
     inkscape:window-maximized="1" />
  <metadata
     id="metadata7">
    <rdf:RDF>
      <cc:Work
         rdf:about="">
        <dc:format>image/svg+xml</dc:format>
        <dc:type
           rdf:resource="http://purl.org/dc/dcmitype/StillImage" />
        <dc:title></dc:title>
      </cc:Work>
    </rdf:RDF>
  </metadata>
  <g
     inkscape:label="Layer 1"
     inkscape:groupmode="layer"
     id="layer1"
     transform="translate(-35.146791,-189.28065)">
    <path
       style="fill:#333333;fill-rule:evenodd;stroke:#000000;stroke-width:1px;stroke-linecap:butt;stroke-linejoin:miter;stroke-opacity:1"
       d="M 165.66797 4.0429688 C 76.128048 4.0429688 4.0429688 76.128048 4.0429688 165.66797 L 4.0429688 508.13281 C 4.0429688 597.67273 76.128048 669.75781 165.66797 669.75781 L 508.13281 669.75781 C 597.67273 669.75781 669.75781 597.67273 669.75781 508.13281 L 669.75781 165.66797 C 669.75781 76.128048 597.67273 4.0429688 508.13281 4.0429688 L 165.66797 4.0429688 z M 340.00586 222.55469 C 365.1427 222.55469 385.75617 228.6883 401.84375 240.95508 C 418.13242 253.22185 428.18701 270.51638 432.00781 292.83789 L 403.35156 292.83789 C 400.33514 278.76126 393.09521 267.70004 381.63281 259.65625 C 370.37151 251.41137 356.39594 247.28906 339.70508 247.28906 C 316.37809 247.28906 297.67624 255.53367 283.59961 272.02344 C 269.52298 288.31211 262.48437 309.93026 262.48438 336.87695 C 262.48438 344.51855 263.18804 352.26082 264.5957 360.10352 C 266.00337 367.74511 268.51701 375.7884 272.13672 384.23438 C 275.75642 392.68035 280.38302 400.12161 286.01367 406.55664 C 291.84542 412.79058 299.48605 418.0192 308.9375 422.24219 C 318.38895 426.26408 329.14721 428.27344 341.21289 428.27344 C 361.32236 428.27344 377.81158 421.94045 390.68164 409.27148 C 403.7528 396.60252 410.28906 380.41431 410.28906 360.70703 L 410.28906 354.67383 L 343.32422 354.67383 L 343.32422 329.93945 L 435.02344 329.93945 L 435.02344 447.27734 L 417.22656 447.27734 L 410.28906 418.01758 C 389.37521 441.34456 364.33842 453.00977 335.17969 453.00977 C 305.41767 453.00977 281.18618 442.35119 262.48438 421.03516 C 243.78257 399.71912 234.43164 372.16867 234.43164 338.38477 C 234.43164 328.73222 235.33663 319.08028 237.14648 309.42773 C 238.95634 299.57409 242.37498 289.31817 247.40234 278.66016 C 252.42971 268.00214 258.66301 258.65121 266.10352 250.60742 C 273.74511 242.56363 283.90135 235.92768 296.57031 230.69922 C 309.44037 225.26966 323.91828 222.55469 340.00586 222.55469 z M 40.533203 226.17383 L 213.07227 226.17383 L 213.07227 250.9082 L 140.98047 250.9082 L 140.98047 446.07031 L 112.92773 446.07031 L 112.92773 250.9082 L 40.533203 250.9082 L 40.533203 226.17383 z M 536.26172 226.17383 L 572.45898 226.17383 L 649.67969 446.07031 L 618.30859 446.07031 L 595.68555 380.01172 L 510.92383 380.01172 L 487.69727 446.07031 L 457.83594 446.07031 L 536.26172 226.17383 z M 554.05859 256.33789 L 517.86328 356.48438 L 587.84375 356.48438 L 554.05859 256.33789 z "
       transform="translate(35.146791,189.28065)"
       id="rect3336" />
    <flowRoot
       xml:space="preserve"
       id="flowRoot3348"
       style="font-style:normal;font-weight:normal;font-size:40px;line-height:125%;font-family:sans-serif;letter-spacing:0px;word-spacing:0px;fill:#000000;fill-opacity:1;stroke:none;stroke-width:1px;stroke-linecap:butt;stroke-linejoin:miter;stroke-opacity:1"><flowRegion
         id="flowRegion3350"><rect
           id="rect3352"
           width="482.85291"
           height="389.91888"
           x="36.36549"
           y="169.48888" /></flowRegion><flowPara
         id="flowPara3354"></flowPara></flowRoot>    <flowRoot
       xml:space="preserve"
       id="flowRoot3364"
       style="font-style:normal;font-weight:normal;font-size:40px;line-height:125%;font-family:sans-serif;letter-spacing:0px;word-spacing:0px;fill:#000000;fill-opacity:1;stroke:none;stroke-width:1px;stroke-linecap:butt;stroke-linejoin:miter;stroke-opacity:1"><flowRegion
         id="flowRegion3366"><rect
           id="rect3368"
           width="1.4285715"
           height="178.57143"
           x="380"
           y="348.07648" /></flowRegion><flowPara
         id="flowPara3370"></flowPara></flowRoot>    <flowRoot
       xml:space="preserve"
       id="flowRoot3372"
       style="font-style:normal;font-weight:normal;font-size:40px;line-height:125%;font-family:sans-serif;letter-spacing:0px;word-spacing:0px;fill:#000000;fill-opacity:1;stroke:none;stroke-width:1px;stroke-linecap:butt;stroke-linejoin:miter;stroke-opacity:1"><flowRegion
         id="flowRegion3374"><rect
           id="rect3376"
           width="161.42857"
           height="60"
           x="378.57144"
           y="343.79077" /></flowRegion><flowPara
         id="flowPara3378"></flowPara></flowRoot>  </g>
</svg>
