<?xml version="1.0" encoding="UTF-8" standalone="no"?>
<!-- Created with Inkscape (http://www.inkscape.org/) -->

<svg
   xmlns:dc="http://purl.org/dc/elements/1.1/"
   xmlns:cc="http://creativecommons.org/ns#"
   xmlns:rdf="http://www.w3.org/1999/02/22-rdf-syntax-ns#"
   xmlns:svg="http://www.w3.org/2000/svg"
   xmlns="http://www.w3.org/2000/svg"
   xmlns:sodipodi="http://sodipodi.sourceforge.net/DTD/sodipodi-0.dtd"
   xmlns:inkscape="http://www.inkscape.org/namespaces/inkscape"
   width="190.16159mm"
   height="190.16159mm"
   viewBox="0 0 673.80091 673.80091"
   id="svg2"
   version="1.1"
   inkscape:version="0.91 r13725"
   sodipodi:docname="XAS.svg">
  <defs
     id="defs4" />
  <sodipodi:namedview
     id="base"
     pagecolor="#ffffff"
     bordercolor="#666666"
     borderopacity="1.0"
     inkscape:pageopacity="0.0"
     inkscape:pageshadow="2"
     inkscape:zoom="0.7"
     inkscape:cx="161.54025"
     inkscape:cy="185.42769"
     inkscape:document-units="px"
     inkscape:current-layer="layer1"
     showgrid="false"
     fit-margin-top="1"
     fit-margin-right="1"
     fit-margin-bottom="1"
     fit-margin-left="1"
     inkscape:window-width="1920"
     inkscape:window-height="1011"
     inkscape:window-x="1680"
     inkscape:window-y="32"
     inkscape:window-maximized="1" />
  <metadata
     id="metadata7">
    <rdf:RDF>
      <cc:Work
         rdf:about="">
        <dc:format>image/svg+xml</dc:format>
        <dc:type
           rdf:resource="http://purl.org/dc/dcmitype/StillImage" />
        <dc:title></dc:title>
        <dc:title></dc:title>
      </cc:Work>
    </rdf:RDF>
  </metadata>
  <g
     inkscape:label="Layer 1"
     inkscape:groupmode="layer"
     id="layer1"
     transform="translate(-35.146791,-189.28065)">
    <path
       style="fill:#333333;fill-rule:evenodd;stroke:#000000;stroke-width:1px;stroke-linecap:butt;stroke-linejoin:miter;stroke-opacity:1"
       d="M 165.66797 4.0429688 C 76.128048 4.0429688 4.0429688 76.128048 4.0429688 165.66797 L 4.0429688 508.13281 C 4.0429688 597.67273 76.128048 669.75781 165.66797 669.75781 L 508.13281 669.75781 C 597.67273 669.75781 669.75781 597.67273 669.75781 508.13281 L 669.75781 165.66797 C 669.75781 76.128048 597.67273 4.0429688 508.13281 4.0429688 L 165.66797 4.0429688 z M 540.76758 222.55469 C 566.10551 222.55469 585.814 228.58666 599.89062 240.65234 C 613.96725 252.51693 621.10555 269.20748 621.30664 290.72461 L 594.76172 290.72461 C 594.56062 276.44689 589.73465 265.4873 580.2832 257.8457 C 570.83175 250.00301 557.35852 246.08203 539.86328 246.08203 C 524.98227 246.08203 513.01801 249.50067 503.96875 256.33789 C 495.12058 263.17511 490.69531 272.12339 490.69531 283.18359 C 490.69531 291.62957 493.41029 298.26748 498.83984 303.09375 C 504.2694 307.92002 513.62033 312.14201 526.89258 315.76172 L 582.09375 330.54297 C 596.97476 334.56486 608.43668 341.40214 616.48047 351.05469 C 624.72535 360.70723 628.84766 372.26884 628.84766 385.74219 C 628.84766 391.57393 628.0443 397.40654 626.43555 403.23828 C 625.02788 408.86893 622.31291 414.80122 618.29102 421.03516 C 614.26912 427.068 609.14019 432.39631 602.90625 437.02148 C 596.67231 441.64666 588.32802 445.46795 577.87109 448.48438 C 567.61526 451.5008 555.95006 453.00977 542.87891 453.00977 C 534.63402 453.00977 526.69238 452.30415 519.05078 450.89648 C 511.61028 449.68992 503.96769 447.37759 496.125 443.95898 C 488.28231 440.33928 481.54667 435.81432 475.91602 430.38477 C 470.28536 424.75411 465.55908 417.31481 461.73828 408.06445 C 458.11858 398.8141 456.20891 388.15553 456.00781 376.08984 L 482.55078 376.08984 L 482.55078 377.59766 C 482.55078 383.83159 483.45577 389.66419 485.26562 395.09375 C 487.27657 400.52331 490.3942 405.85162 494.61719 411.08008 C 499.04127 416.30854 505.4759 420.53248 513.92188 423.75 C 522.56895 426.76642 532.82487 428.27344 544.68945 428.27344 C 555.95076 428.27344 565.50301 426.96775 573.3457 424.35352 C 581.1884 421.73928 586.91936 418.32064 590.53906 414.09766 C 594.35986 409.87467 596.97515 405.75236 598.38281 401.73047 C 599.99157 397.50748 600.79492 393.08221 600.79492 388.45703 C 600.79492 371.76617 587.32169 359.9016 560.375 352.86328 L 505.77734 338.38477 C 477.0208 330.94426 462.64258 313.85106 462.64258 287.10547 C 462.64258 267.19709 469.5815 251.51123 483.45703 240.04883 C 497.53366 228.38534 516.63622 222.55469 540.76758 222.55469 z M 52.027344 226.17383 L 86.113281 226.17383 L 142.52148 312.44336 L 199.22852 226.17383 L 232.71094 226.17383 L 158.50781 333.25781 L 236.33203 446.07031 L 201.64258 446.07031 L 141.61523 354.37109 L 81.287109 446.07031 L 47.201172 446.07031 L 125.02539 333.25781 L 52.027344 226.17383 z M 323.58203 226.17383 L 359.7793 226.17383 L 436.99805 446.07031 L 405.62891 446.07031 L 383.00391 380.01172 L 298.24414 380.01172 L 275.01758 446.07031 L 245.1543 446.07031 L 323.58203 226.17383 z M 341.37891 256.33789 L 305.18164 356.48438 L 375.16211 356.48438 L 341.37891 256.33789 z "
       transform="translate(35.146791,189.28065)"
       id="rect3336" />
    <flowRoot
       xml:space="preserve"
       id="flowRoot3348"
       style="font-style:normal;font-weight:normal;font-size:40px;line-height:125%;font-family:sans-serif;letter-spacing:0px;word-spacing:0px;fill:#000000;fill-opacity:1;stroke:none;stroke-width:1px;stroke-linecap:butt;stroke-linejoin:miter;stroke-opacity:1"><flowRegion
         id="flowRegion3350"><rect
           id="rect3352"
           width="482.85291"
           height="389.91888"
           x="36.36549"
           y="169.48888" /></flowRegion><flowPara
         id="flowPara3354"></flowPara></flowRoot>    <flowRoot
       xml:space="preserve"
       id="flowRoot3364"
       style="font-style:normal;font-weight:normal;font-size:40px;line-height:125%;font-family:sans-serif;letter-spacing:0px;word-spacing:0px;fill:#000000;fill-opacity:1;stroke:none;stroke-width:1px;stroke-linecap:butt;stroke-linejoin:miter;stroke-opacity:1"><flowRegion
         id="flowRegion3366"><rect
           id="rect3368"
           width="1.4285715"
           height="178.57143"
           x="380"
           y="348.07648" /></flowRegion><flowPara
         id="flowPara3370"></flowPara></flowRoot>    <flowRoot
       xml:space="preserve"
       id="flowRoot3372"
       style="font-style:normal;font-weight:normal;font-size:40px;line-height:125%;font-family:sans-serif;letter-spacing:0px;word-spacing:0px;fill:#000000;fill-opacity:1;stroke:none;stroke-width:1px;stroke-linecap:butt;stroke-linejoin:miter;stroke-opacity:1"><flowRegion
         id="flowRegion3374"><rect
           id="rect3376"
           width="161.42857"
           height="60"
           x="378.57144"
           y="343.79077" /></flowRegion><flowPara
         id="flowPara3378"></flowPara></flowRoot>  </g>
</svg>
