<?xml version="1.0" encoding="UTF-8" standalone="no"?>
<!-- Created with Inkscape (http://www.inkscape.org/) -->

<svg
   xmlns:dc="http://purl.org/dc/elements/1.1/"
   xmlns:cc="http://creativecommons.org/ns#"
   xmlns:rdf="http://www.w3.org/1999/02/22-rdf-syntax-ns#"
   xmlns:svg="http://www.w3.org/2000/svg"
   xmlns="http://www.w3.org/2000/svg"
   xmlns:sodipodi="http://sodipodi.sourceforge.net/DTD/sodipodi-0.dtd"
   xmlns:inkscape="http://www.inkscape.org/namespaces/inkscape"
   width="189.87952mm"
   height="189.87897mm"
   viewBox="0 0 672.80144 672.79949"
   id="svg2"
   version="1.1"
   inkscape:version="0.91 r13725"
   sodipodi:docname="XRD.svg">
  <defs
     id="defs4" />
  <sodipodi:namedview
     id="base"
     pagecolor="#ffffff"
     bordercolor="#666666"
     borderopacity="1.0"
     inkscape:pageopacity="0.0"
     inkscape:pageshadow="2"
     inkscape:zoom="0.7"
     inkscape:cx="196.68704"
     inkscape:cy="374.70833"
     inkscape:document-units="px"
     inkscape:current-layer="layer1"
     showgrid="false"
     fit-margin-top="1"
     fit-margin-right="1"
     fit-margin-bottom="1"
     fit-margin-left="1"
     inkscape:window-width="1920"
     inkscape:window-height="1011"
     inkscape:window-x="1680"
     inkscape:window-y="32"
     inkscape:window-maximized="1" />
  <metadata
     id="metadata7">
    <rdf:RDF>
      <cc:Work
         rdf:about="">
        <dc:format>image/svg+xml</dc:format>
        <dc:type
           rdf:resource="http://purl.org/dc/dcmitype/StillImage" />
        <dc:title></dc:title>
      </cc:Work>
    </rdf:RDF>
  </metadata>
  <g
     inkscape:label="Layer 1"
     inkscape:groupmode="layer"
     id="layer1"
     transform="translate(-35.648099,-189.78286)">
    <path
       style="fill:#333333;fill-rule:evenodd;stroke:none;stroke-width:1px;stroke-linecap:butt;stroke-linejoin:miter;stroke-opacity:1"
       d="m 200.81641,193.32617 c -89.53992,0 -161.625004,72.08313 -161.625004,161.62305 l 0,342.4668 c 0,89.53992 72.085084,161.62304 161.625004,161.62304 l 342.46484,0 c 89.53992,0 161.625,-72.08312 161.625,-161.62304 l 0,-342.4668 c 0,-89.53992 -72.08508,-161.62305 -161.625,-161.62305 l -342.46484,0 z m -124.541019,222.12891 34.085939,0 56.40625,86.26953 56.70898,-86.26953 33.48242,0 -74.20312,107.08203 77.82226,112.81445 -34.6875,0 -60.02734,-91.69922 -60.32812,91.69922 -34.085941,0 L 149.27344,522.53711 76.275391,415.45508 Z m 212.732419,0 101.35352,0 c 21.51713,0 38.00635,5.12698 49.46875,15.38281 11.66349,10.05473 17.49414,24.5346 17.49414,43.4375 0,12.46787 -2.71302,22.82348 -8.14258,31.06836 -5.42956,8.24488 -14.27815,15.38318 -26.54492,21.41602 6.43503,2.81532 11.76334,6.13427 15.98633,9.95507 4.42408,3.8208 7.54171,8.14443 9.35156,12.97071 2.01095,4.82627 3.31664,9.35123 3.91992,13.57422 0.60329,4.22298 0.90625,9.25028 0.90625,15.08203 0,1.80985 -0.10164,4.42318 -0.30273,7.84179 l 0,7.54102 c 0,8.24488 0.90499,15.1838 2.71484,20.81445 1.80985,5.63065 5.33013,10.2553 10.55859,13.875 l 0,6.9375 -34.08593,0 c -4.0219,-9.25035 -6.03321,-21.21462 -6.03321,-35.89453 l 0,-19.60742 c 0,-13.47334 -2.9163,-23.32661 -8.74804,-29.56055 -5.83175,-6.43503 -14.98135,-9.65234 -27.44922,-9.65234 l -72.39453,0 0,94.71484 -28.05274,0 0,-219.89648 z m 213.86133,0 84.75977,0 c 27.95216,0 49.87133,9.75358 65.75781,29.25976 15.88648,19.50619 23.83008,46.35102 23.83008,80.53711 0,34.1861 -8.04329,61.13257 -24.13086,80.83985 -15.88648,19.50618 -37.70597,29.25976 -65.45703,29.25976 l -84.75977,0 0,-219.89648 z m -185.80859,24.73437 0,75.71289 67.87109,0 c 14.88101,0 25.73895,-3.01794 32.57617,-9.05078 7.03832,-6.03284 10.5586,-15.58509 10.5586,-28.65625 0,-14.47881 -3.8213,-24.43177 -11.46289,-29.86133 -7.6416,-5.42955 -18.19854,-8.14453 -31.67188,-8.14453 l -67.87109,0 z m 213.86133,0 0,170.42774 51.88085,0 c 21.71823,0 38.20941,-7.23994 49.47071,-21.71875 11.2613,-14.47882 16.89062,-35.59269 16.89062,-63.34375 0,-27.95216 -5.62932,-49.16767 -16.89062,-63.64649 -11.2613,-14.47881 -27.75248,-21.71875 -49.47071,-21.71875 l -51.88085,0 z"
       id="rect3336"
       inkscape:connector-curvature="0" />
    <flowRoot
       xml:space="preserve"
       id="flowRoot3348"
       style="font-style:normal;font-weight:normal;font-size:40px;line-height:125%;font-family:sans-serif;letter-spacing:0px;word-spacing:0px;fill:#000000;fill-opacity:1;stroke:none;stroke-width:1px;stroke-linecap:butt;stroke-linejoin:miter;stroke-opacity:1"><flowRegion
         id="flowRegion3350"><rect
           id="rect3352"
           width="482.85291"
           height="389.91888"
           x="36.36549"
           y="169.48888" /></flowRegion><flowPara
         id="flowPara3354"></flowPara></flowRoot>    <flowRoot
       xml:space="preserve"
       id="flowRoot3364"
       style="font-style:normal;font-weight:normal;font-size:40px;line-height:125%;font-family:sans-serif;letter-spacing:0px;word-spacing:0px;fill:#000000;fill-opacity:1;stroke:none;stroke-width:1px;stroke-linecap:butt;stroke-linejoin:miter;stroke-opacity:1"><flowRegion
         id="flowRegion3366"><rect
           id="rect3368"
           width="1.4285715"
           height="178.57143"
           x="380"
           y="348.07648" /></flowRegion><flowPara
         id="flowPara3370"></flowPara></flowRoot>    <flowRoot
       xml:space="preserve"
       id="flowRoot3372"
       style="font-style:normal;font-weight:normal;font-size:40px;line-height:125%;font-family:sans-serif;letter-spacing:0px;word-spacing:0px;fill:#000000;fill-opacity:1;stroke:none;stroke-width:1px;stroke-linecap:butt;stroke-linejoin:miter;stroke-opacity:1"><flowRegion
         id="flowRegion3374"><rect
           id="rect3376"
           width="161.42857"
           height="60"
           x="378.57144"
           y="343.79077" /></flowRegion><flowPara
         id="flowPara3378"></flowPara></flowRoot>  </g>
</svg>
