<?xml version="1.0" encoding="UTF-8" standalone="no"?>
<!-- Created with Inkscape (http://www.inkscape.org/) -->

<svg
   xmlns:dc="http://purl.org/dc/elements/1.1/"
   xmlns:cc="http://creativecommons.org/ns#"
   xmlns:rdf="http://www.w3.org/1999/02/22-rdf-syntax-ns#"
   xmlns:svg="http://www.w3.org/2000/svg"
   xmlns="http://www.w3.org/2000/svg"
   xmlns:sodipodi="http://sodipodi.sourceforge.net/DTD/sodipodi-0.dtd"
   xmlns:inkscape="http://www.inkscape.org/namespaces/inkscape"
   width="208.6114mm"
   height="244.81525mm"
   viewBox="0 0 739.17425 867.45561"
   id="svg2"
   version="1.1"
   inkscape:version="0.91 r13725"
   sodipodi:docname="lock.svg">
  <defs
     id="defs4" />
  <sodipodi:namedview
     id="base"
     pagecolor="#ffffff"
     bordercolor="#666666"
     borderopacity="1.0"
     inkscape:pageopacity="0.0"
     inkscape:pageshadow="2"
     inkscape:zoom="0.35"
     inkscape:cx="-67.471339"
     inkscape:cy="510.81435"
     inkscape:document-units="px"
     inkscape:current-layer="layer1"
     showgrid="false"
     inkscape:window-width="1920"
     inkscape:window-height="1011"
     inkscape:window-x="1680"
     inkscape:window-y="32"
     inkscape:window-maximized="1"
     fit-margin-top="30"
     fit-margin-left="30"
     fit-margin-right="40"
     fit-margin-bottom="30" />
  <metadata
     id="metadata7">
    <rdf:RDF>
      <cc:Work
         rdf:about="">
        <dc:format>image/svg+xml</dc:format>
        <dc:type
           rdf:resource="http://purl.org/dc/dcmitype/StillImage" />
        <dc:title></dc:title>
      </cc:Work>
    </rdf:RDF>
  </metadata>
  <g
     inkscape:label="Layer 1"
     inkscape:groupmode="layer"
     id="layer1"
     transform="translate(-91.042772,-175.72105)">
    <path
       id="path3440"
       d="m 606.62762,568.52037 0,-122.78571 c 0,-90.25011 -73.4233,-163.71439 -163.71428,-163.71439 -90.27052,0 -163.71428,73.46428 -163.71428,163.71439 l 0,122.78571 c -45.20557,0 -81.8571,36.65153 -81.8571,81.85714 l 0,204.64284 c 0,45.2056 36.65153,81.85714 81.8571,81.85714 l 327.42856,0 c 45.20561,0 81.85714,-36.65154 81.85714,-81.85714 l 0,-204.64284 c 0,-45.20561 -36.65153,-81.85714 -81.85714,-81.85714 z m -143.25,198.36799 0,67.6677 c 0,11.31163 -9.15265,20.46429 -20.46428,20.46429 -11.31163,0 -20.46429,-9.15266 -20.46429,-20.46429 l 0,-67.6677 c -12.01125,-7.11518 -20.46428,-19.6649 -20.46428,-34.65371 0,-22.62327 18.32577,-40.92857 40.92857,-40.92857 22.6028,0 40.92857,18.30658 40.92857,40.92857 0,14.98881 -8.45303,27.53853 -20.46429,34.65371 z m 61.39286,-198.36799 -163.71428,0 0,-122.78571 c 0,-45.16596 36.71165,-81.85714 81.85714,-81.85714 45.12503,0 81.85714,36.69246 81.85714,81.85714 l 0,122.78571 z"
       inkscape:connector-curvature="0"
       style="fill:#808080" />
  </g>
</svg>
