<?xml version="1.0" encoding="UTF-8" standalone="no"?>
<!-- Created with Inkscape (http://www.inkscape.org/) -->

<svg
   xmlns:dc="http://purl.org/dc/elements/1.1/"
   xmlns:cc="http://creativecommons.org/ns#"
   xmlns:rdf="http://www.w3.org/1999/02/22-rdf-syntax-ns#"
   xmlns:svg="http://www.w3.org/2000/svg"
   xmlns="http://www.w3.org/2000/svg"
   xmlns:sodipodi="http://sodipodi.sourceforge.net/DTD/sodipodi-0.dtd"
   xmlns:inkscape="http://www.inkscape.org/namespaces/inkscape"
   id="svg3370"
   version="1.1"
   inkscape:version="0.91 r13725"
   xml:space="preserve"
   width="899.63751"
   height="899.65002"
   viewBox="0 0 899.63751 899.65002"
   sodipodi:docname="ghs-environmental.svg"><metadata
     id="metadata3376"><rdf:RDF><cc:Work
         rdf:about=""><dc:format>image/svg+xml</dc:format><dc:type
           rdf:resource="http://purl.org/dc/dcmitype/StillImage" /><dc:title></dc:title></cc:Work></rdf:RDF></metadata><defs
     id="defs3374" /><sodipodi:namedview
     pagecolor="#ffffff"
     bordercolor="#666666"
     borderopacity="1"
     objecttolerance="10"
     gridtolerance="10"
     guidetolerance="10"
     inkscape:pageopacity="0"
     inkscape:pageshadow="2"
     inkscape:window-width="862"
     inkscape:window-height="506"
     id="namedview3372"
     showgrid="false"
     inkscape:zoom="0.26232423"
     inkscape:cx="449.81876"
     inkscape:cy="449.82501"
     inkscape:window-x="0"
     inkscape:window-y="55"
     inkscape:window-maximized="0"
     inkscape:current-layer="g3378" /><g
     id="g3378"
     inkscape:groupmode="layer"
     inkscape:label="ink_ext_XXXXXX"
     transform="matrix(1.25,0,0,-1.25,0,899.65)"><g
       id="g3380"
       transform="scale(0.1,0.1)"><path
         d="M 6626.67,3598.68 C 6377.32,3349.3 3847.69,819.609 3598.69,570.23 3349.33,819.609 819.734,3349.32 570.387,3598.68 819.734,3848.03 3349.33,6377.66 3598.69,6627.03 3847.67,6377.66 6377.32,3848.03 6626.67,3598.68 Z M 0.1875,3598.68 3598.69,0 7196.89,3598.68 3598.69,7197.24 0.1875,3598.68"
         style="fill:#ef2e32;fill-opacity:1;fill-rule:nonzero;stroke:none"
         id="path3382"
         inkscape:connector-curvature="0" /><path
         d="m 2160.6,3601.56 2811.72,0"
         style="fill:none;stroke:#100f0d;stroke-width:50;stroke-linecap:butt;stroke-linejoin:miter;stroke-miterlimit:4;stroke-dasharray:none;stroke-opacity:1"
         id="path3384"
         inkscape:connector-curvature="0" /><path
         d="m 2539.12,2871.91 346.07,200.07 16.22,854.02 -427.19,232.52 c 0,0 -64.88,43.26 -156.81,16.22 -32.44,-10.82 -75.7,-21.63 -75.7,-21.63 0,0 232.51,194.67 275.78,178.45 43.25,-16.22 346.07,-162.23 346.07,-162.23 0,0 -32.45,227.11 -113.56,292 -81.11,64.89 -394.74,313.63 -394.74,313.63 l 0,59.48 427.19,-259.55 c 0,0 16.22,248.74 -70.3,394.74 -86.52,146 -151.41,275.78 -151.41,275.78 l 27.04,21.62 210.89,-324.44 70.29,221.71 43.27,10.81 c 0,0 -54.08,-313.63 -16.23,-410.96 37.85,-97.33 178.45,-627.26 178.45,-627.26 l 210.89,302.82 c 0,0 5.4,124.37 -5.41,210.88 -10.82,86.52 -27.04,486.67 -27.04,486.67 l 37.85,0 59.48,-438 340.55,394.74 0,-43.26 c 0,0 -335.14,-421.78 -318.91,-513.7 16.22,-91.93 32.44,-146 -27.04,-275.78 -59.48,-129.78 -97.33,-221.71 -97.33,-221.71 0,0 178.44,210.89 259.55,227.12 81.11,5.4 189.13,-5.41 264.84,59.48 75.7,64.89 259.55,270.37 259.55,270.37 l -286.59,-443.41 c 0,0 -135.07,-5.41 -189.13,-64.89 -54.08,-59.48 -275.78,-313.63 -275.78,-313.63 l 0,-583.64 367.62,-183.85 -448.73,-64.89 -108.15,-156.82 -146,124.37 -405.55,-37.85"
         style="fill:#100f0d;fill-opacity:1;fill-rule:nonzero;stroke:none"
         id="path3386"
         inkscape:connector-curvature="0" /><path
         d="m 2539.12,2871.91 346.07,200.07 16.22,854.02 -427.19,232.52 c 0,0 -64.88,43.26 -156.81,16.22 -32.44,-10.82 -75.7,-21.63 -75.7,-21.63 0,0 232.51,194.67 275.78,178.45 43.25,-16.22 346.07,-162.23 346.07,-162.23 0,0 -32.45,227.11 -113.56,292 -81.11,64.89 -394.74,313.63 -394.74,313.63 l 0,59.48 427.19,-259.55 c 0,0 16.22,248.74 -70.3,394.74 -86.52,146 -151.41,275.78 -151.41,275.78 l 27.04,21.62 210.89,-324.44 70.29,221.71 43.27,10.81 c 0,0 -54.08,-313.63 -16.23,-410.96 37.85,-97.33 178.45,-627.26 178.45,-627.26 l 210.89,302.82 c 0,0 5.4,124.37 -5.41,210.88 -10.82,86.52 -27.04,486.67 -27.04,486.67 l 37.85,0 59.48,-438 340.55,394.74 0,-43.26 c 0,0 -335.14,-421.78 -318.91,-513.7 16.22,-91.93 32.44,-146 -27.04,-275.78 -59.48,-129.78 -97.33,-221.71 -97.33,-221.71 0,0 178.44,210.89 259.55,227.12 81.11,5.4 189.13,-5.41 264.84,59.48 75.7,64.89 259.55,270.37 259.55,270.37 l -286.59,-443.41 c 0,0 -135.07,-5.41 -189.13,-64.89 -54.08,-59.48 -275.78,-313.63 -275.78,-313.63 l 0,-583.64 367.62,-183.85 -448.73,-64.89 -108.15,-156.82 -146,124.37 -405.55,-37.85 z"
         style="fill:none;stroke:#100f0d;stroke-width:40;stroke-linecap:butt;stroke-linejoin:miter;stroke-miterlimit:4;stroke-dasharray:none;stroke-opacity:1"
         id="path3388"
         inkscape:connector-curvature="0" /><path
         d="m 2171.41,2363.61 c 0,0 492.08,146 573.18,86.53 108.15,48.66 897.56,383.92 897.56,362.29 0,-21.63 908.39,281.18 908.39,281.18 l 329.86,-237.93 -313.63,-151.4 421.78,-37.86 -113.55,-151.4 232.5,0 5.42,-167.63 -2941.51,16.22"
         style="fill:#100f0d;fill-opacity:1;fill-rule:nonzero;stroke:none"
         id="path3390"
         inkscape:connector-curvature="0" /><path
         d="m 2171.41,2363.61 c 0,0 492.08,146 573.18,86.53 108.15,48.66 897.56,383.92 897.56,362.29 0,-21.63 908.39,281.18 908.39,281.18 l 329.86,-237.93 -313.63,-151.4 421.78,-37.86 -113.55,-151.4 232.5,0 5.42,-167.63 -2941.51,16.22 z"
         style="fill:none;stroke:#100f0d;stroke-width:40;stroke-linecap:butt;stroke-linejoin:miter;stroke-miterlimit:4;stroke-dasharray:none;stroke-opacity:1"
         id="path3392"
         inkscape:connector-curvature="0" /><path
         d="m 3269.11,2790.8 c 0,0 140.6,5.41 205.48,32.44 102.91,42.88 270.25,113.56 367.58,254.15 100.64,145.36 459.63,756.69 951.71,708.02 -27.04,-64.89 -113.55,-205.48 -113.55,-205.48 l 351.47,108.14 c 0,0 5.41,-464.68 -659.7,-762.08 -308.22,-108.16 -373.11,-113.56 -400.14,-151.41 -27.04,-37.85 -151.41,-227.12 -151.41,-227.12 l -551.44,243.34"
         style="fill:#ffffff;fill-opacity:1;fill-rule:nonzero;stroke:none"
         id="path3394"
         inkscape:connector-curvature="0" /><path
         d="m 3269.11,2790.8 c 0,0 140.6,5.41 205.48,32.44 102.91,42.88 270.25,113.56 367.58,254.15 100.64,145.36 459.63,756.69 951.71,708.02 -27.04,-64.89 -113.55,-205.48 -113.55,-205.48 l 351.47,108.14 c 0,0 5.41,-464.68 -659.7,-762.08 -308.22,-108.16 -373.11,-113.56 -400.14,-151.41 -27.04,-37.85 -151.41,-227.12 -151.41,-227.12 l -551.44,243.34 z"
         style="fill:none;stroke:#100f0d;stroke-width:50;stroke-linecap:butt;stroke-linejoin:miter;stroke-miterlimit:4;stroke-dasharray:none;stroke-opacity:1"
         id="path3396"
         inkscape:connector-curvature="0" /><path
         d="m 4707.36,3415.39 c 0,28.31 26.63,51.26 59.48,51.26 32.85,0 59.48,-22.95 59.48,-51.26 0,-28.37 -26.63,-51.38 -59.48,-51.38 -32.85,0 -59.48,23.01 -59.48,51.38"
         style="fill:#100f0d;fill-opacity:1;fill-rule:nonzero;stroke:none"
         id="path3398"
         inkscape:connector-curvature="0" /></g></g></svg>